<svg width="605" height="462" viewBox="0 0 605 462" fill="none" xmlns="http://www.w3.org/2000/svg">
<g clip-path="url(#clip0_1032_129)">
<path d="M237.488 95.495L239.696 96.0359C238.7 96.1792 237.703 96.316 236.706 96.4399H199.877C197.115 96.088 194.369 95.6536 191.637 95.1366C175.184 92.1014 159.483 85.8791 145.415 76.8195C136.771 71.196 128.531 64.2823 124.056 54.9967C117.979 42.3878 120.102 26.423 128.779 15.4432C131.938 11.4817 135.827 8.1636 140.236 5.66886C140.894 5.29092 141.559 4.93253 142.236 4.59368C149.581 0.901404 157.829 -0.609108 166.005 0.240845C179.912 1.75913 192.744 10.2563 200.151 22.1288C208.339 35.2395 209.908 51.2824 211.276 66.6803C213.758 58.6914 223.073 53.8107 231.248 55.5766C239.416 57.336 245.722 64.9665 246.738 73.2682C247.734 81.3874 244.048 89.7216 237.905 95.1366C237.768 95.2539 237.631 95.3777 237.488 95.495Z" fill="#F2F2F2"/>
<path d="M209.088 96.4398H207.244C207.062 96.2941 206.92 96.1032 206.834 95.886C206.73 95.6383 206.632 95.3842 206.521 95.1366C201.043 81.8616 194.299 69.1461 186.38 57.1666C173.798 38.0978 158.386 21.0579 140.673 6.63325C140.521 6.52545 140.401 6.3794 140.325 6.20998C140.248 6.04056 140.217 5.85384 140.236 5.66884C140.274 5.42197 140.376 5.18931 140.531 4.99435C140.687 4.79939 140.892 4.64904 141.125 4.55848C141.357 4.46792 141.61 4.44036 141.856 4.47857C142.103 4.51679 142.335 4.61942 142.529 4.77613C154.006 14.1263 164.533 24.5855 173.959 36.0019C183.389 47.4043 191.692 59.6949 198.75 72.7012C202.689 79.9812 206.226 87.4708 209.348 95.1366C209.355 95.1561 209.361 95.1692 209.368 95.1887C209.472 95.3976 209.501 95.6362 209.45 95.8641C209.399 96.092 209.271 96.2954 209.088 96.4398V96.4398Z" fill="white"/>
<path d="M363.472 95.1366H12.3763C9.09481 95.1396 5.94858 96.4449 3.62821 98.7661C1.30785 101.087 0.00297003 104.235 0 107.517V145.312C0.00297003 148.594 1.30785 151.742 3.62821 154.063C5.94858 156.384 9.09481 157.689 12.3763 157.692H363.472C366.754 157.689 369.9 156.384 372.22 154.063C374.541 151.742 375.846 148.594 375.849 145.312V107.517C375.846 104.235 374.541 101.087 372.22 98.7661C369.9 96.4449 366.754 95.1396 363.472 95.1366V95.1366ZM374.546 145.312C374.542 148.248 373.374 151.063 371.298 153.14C369.222 155.217 366.408 156.385 363.472 156.389H12.3763C9.44069 156.385 6.62651 155.217 4.55072 153.14C2.47493 151.063 1.30692 148.248 1.30277 145.312V107.517C1.30692 104.581 2.47493 101.766 4.55072 99.689C6.62651 97.6124 9.44069 96.444 12.3763 96.4398H363.472C366.408 96.444 369.222 97.6124 371.298 99.689C373.374 101.766 374.542 104.581 374.546 107.517V145.312Z" fill="#3F3D56"/>
<path d="M363.472 246.965H12.3763C9.09505 246.961 5.94926 245.655 3.62906 243.334C1.30886 241.013 0.00372736 237.866 0 234.584V196.79C0.00372736 193.507 1.30886 190.36 3.62906 188.039C5.94926 185.718 9.09505 184.413 12.3763 184.409H363.472C366.754 184.413 369.899 185.718 372.22 188.039C374.54 190.36 375.845 193.507 375.849 196.79V234.584C375.845 237.866 374.54 241.013 372.22 243.334C369.899 245.655 366.754 246.961 363.472 246.965V246.965ZM12.3763 185.712C9.44043 185.715 6.62575 186.884 4.54977 188.96C2.47379 191.037 1.30606 193.853 1.30277 196.79V234.584C1.30606 237.521 2.47379 240.336 4.54977 242.413C6.62575 244.49 9.44043 245.658 12.3763 245.661H363.472C366.408 245.658 369.223 244.49 371.299 242.413C373.375 240.336 374.543 237.521 374.546 234.584V196.79C374.543 193.853 373.375 191.037 371.299 188.96C369.223 186.884 366.408 185.715 363.472 185.712H12.3763Z" fill="#3F3D56"/>
<path d="M363.472 336.237H12.3763C9.09505 336.233 5.94926 334.928 3.62906 332.607C1.30886 330.285 0.00372736 327.139 0 323.856V286.062C0.00372736 282.78 1.30886 279.633 3.62906 277.312C5.94926 274.99 9.09505 273.685 12.3763 273.681H363.472C366.754 273.685 369.899 274.99 372.22 277.312C374.54 279.633 375.845 282.78 375.849 286.062V323.856C375.845 327.139 374.54 330.285 372.22 332.607C369.899 334.928 366.754 336.233 363.472 336.237V336.237ZM12.3763 274.984C9.44043 274.988 6.62575 276.156 4.54977 278.233C2.47379 280.309 1.30606 283.125 1.30277 286.062V323.856C1.30606 326.793 2.47379 329.609 4.54977 331.685C6.62575 333.762 9.44043 334.93 12.3763 334.934H363.472C366.408 334.93 369.223 333.762 371.299 331.685C373.375 329.609 374.543 326.793 374.546 323.856V286.062C374.543 283.125 373.375 280.309 371.299 278.233C369.223 276.156 366.408 274.988 363.472 274.984H12.3763Z" fill="#3F3D56"/>
<path d="M70.2391 147.592H49.3948C46.5453 147.589 43.8134 146.455 41.7985 144.44C39.7836 142.424 38.6502 139.691 38.647 136.84V115.989C38.6502 113.138 39.7836 110.405 41.7985 108.389C43.8134 106.374 46.5453 105.24 49.3948 105.237H70.2391C73.0886 105.24 75.8205 106.374 77.8354 108.389C79.8503 110.405 80.9837 113.138 80.9869 115.989V136.84C80.9837 139.691 79.8503 142.424 77.8354 144.44C75.8205 146.455 73.0886 147.589 70.2391 147.592V147.592Z" fill="#3B82F6"/>
<path d="M331.665 144.008H101.726C100.344 144.008 99.0187 143.459 98.0414 142.481C97.0642 141.504 96.5151 140.178 96.5151 138.795C96.5151 137.413 97.0642 136.087 98.0414 135.109C99.0187 134.132 100.344 133.582 101.726 133.582H331.665C333.047 133.582 334.372 134.132 335.35 135.109C336.327 136.087 336.876 137.413 336.876 138.795C336.876 140.178 336.327 141.504 335.35 142.481C334.372 143.459 333.047 144.008 331.665 144.008Z" fill="#CCCCCC"/>
<path d="M256.756 121.853H101.726C100.344 121.853 99.0187 121.304 98.0414 120.326C97.0642 119.349 96.5151 118.023 96.5151 116.64C96.5151 115.258 97.0642 113.932 98.0414 112.954C99.0187 111.976 100.344 111.427 101.726 111.427H256.756C258.138 111.427 259.463 111.976 260.44 112.954C261.418 113.932 261.967 115.258 261.967 116.64C261.967 118.023 261.418 119.349 260.44 120.326C259.463 121.304 258.138 121.853 256.756 121.853Z" fill="#CCCCCC"/>
<path d="M70.2391 236.865H49.3948C46.5453 236.861 43.8134 235.727 41.7985 233.712C39.7836 231.696 38.6502 228.963 38.647 226.113V205.261C38.6502 202.41 39.7836 199.677 41.7985 197.662C43.8134 195.646 46.5453 194.512 49.3948 194.509H70.2391C73.0886 194.512 75.8205 195.646 77.8354 197.662C79.8503 199.677 80.9837 202.41 80.9869 205.261V226.113C80.9837 228.963 79.8503 231.696 77.8354 233.712C75.8205 235.727 73.0886 236.861 70.2391 236.865V236.865Z" fill="#3B82F6"/>
<path d="M331.665 233.281H101.726C100.344 233.281 99.0187 232.731 98.0414 231.754C97.0642 230.776 96.5151 229.45 96.5151 228.068C96.5151 226.685 97.0642 225.359 98.0414 224.381C99.0187 223.404 100.344 222.855 101.726 222.855H331.665C333.047 222.855 334.372 223.404 335.35 224.381C336.327 225.359 336.876 226.685 336.876 228.068C336.876 229.45 336.327 230.776 335.35 231.754C334.372 232.731 333.047 233.281 331.665 233.281Z" fill="#CCCCCC"/>
<path d="M256.756 211.125H101.726C100.344 211.125 99.0187 210.576 98.0414 209.599C97.0642 208.621 96.5151 207.295 96.5151 205.912C96.5151 204.53 97.0642 203.204 98.0414 202.226C99.0187 201.249 100.344 200.699 101.726 200.699H256.756C258.138 200.699 259.463 201.249 260.44 202.226C261.418 203.204 261.967 204.53 261.967 205.912C261.967 207.295 261.418 208.621 260.44 209.599C259.463 210.576 258.138 211.125 256.756 211.125Z" fill="#CCCCCC"/>
<path d="M70.2391 326.137H49.3948C46.5453 326.134 43.8134 325 41.7985 322.984C39.7836 320.968 38.6502 318.236 38.647 315.385V294.533C38.6502 291.683 39.7836 288.95 41.7985 286.934C43.8134 284.918 46.5453 283.785 49.3948 283.781H70.2391C73.0886 283.785 75.8205 284.918 77.8354 286.934C79.8503 288.95 80.9837 291.683 80.9869 294.533V315.385C80.9837 318.236 79.8503 320.968 77.8354 322.984C75.8205 325 73.0886 326.134 70.2391 326.137Z" fill="#3B82F6"/>
<path d="M331.665 322.553H101.726C100.344 322.553 99.0187 322.004 98.0414 321.026C97.0642 320.048 96.5151 318.722 96.5151 317.34C96.5151 315.957 97.0642 314.631 98.0414 313.654C99.0187 312.676 100.344 312.127 101.726 312.127H331.665C333.047 312.127 334.372 312.676 335.35 313.654C336.327 314.631 336.876 315.957 336.876 317.34C336.876 318.722 336.327 320.048 335.35 321.026C334.372 322.004 333.047 322.553 331.665 322.553Z" fill="#CCCCCC"/>
<path d="M256.756 300.398H101.726C100.344 300.398 99.0187 299.848 98.0414 298.871C97.0642 297.893 96.5151 296.567 96.5151 295.185C96.5151 293.802 97.0642 292.476 98.0414 291.499C99.0187 290.521 100.344 289.972 101.726 289.972H256.756C258.138 289.972 259.463 290.521 260.44 291.499C261.418 292.476 261.967 293.802 261.967 295.185C261.967 296.567 261.418 297.893 260.44 298.871C259.463 299.848 258.138 300.398 256.756 300.398Z" fill="#CCCCCC"/>
<path d="M371.289 114.034C379.563 114.034 386.271 107.324 386.271 99.0463C386.271 90.7691 379.563 84.059 371.289 84.059C363.015 84.059 356.307 90.7691 356.307 99.0463C356.307 107.324 363.015 114.034 371.289 114.034Z" fill="#3F3D56"/>
<path d="M377.152 105.237C377.066 105.237 376.981 105.22 376.902 105.187C376.823 105.155 376.751 105.106 376.691 105.046L364.966 93.3166C364.844 93.1944 364.775 93.0287 364.775 92.8559C364.775 92.6831 364.844 92.5174 364.966 92.3952C365.088 92.273 365.254 92.2043 365.427 92.2043C365.599 92.2043 365.765 92.273 365.887 92.3952L377.612 104.124C377.703 104.216 377.765 104.332 377.79 104.458C377.815 104.584 377.803 104.715 377.753 104.834C377.704 104.953 377.62 105.055 377.513 105.127C377.406 105.198 377.28 105.237 377.152 105.237L377.152 105.237Z" fill="white"/>
<path d="M365.427 105.237C365.298 105.237 365.172 105.198 365.065 105.127C364.958 105.055 364.874 104.954 364.825 104.834C364.776 104.715 364.763 104.584 364.788 104.458C364.813 104.332 364.875 104.216 364.966 104.124L376.691 92.3952C376.751 92.3347 376.823 92.2867 376.902 92.254C376.981 92.2213 377.066 92.2044 377.152 92.2044C377.237 92.2044 377.322 92.2213 377.401 92.254C377.48 92.2867 377.552 92.3347 377.612 92.3952C377.673 92.4557 377.721 92.5276 377.753 92.6066C377.786 92.6857 377.803 92.7704 377.803 92.856C377.803 92.9415 377.786 93.0262 377.753 93.1053C377.721 93.1843 377.673 93.2562 377.612 93.3167L365.887 105.046C365.827 105.106 365.755 105.155 365.676 105.187C365.597 105.22 365.512 105.237 365.427 105.237V105.237Z" fill="white"/>
<path d="M522.091 276.605C541.345 276.605 556.953 260.991 556.953 241.731C556.953 222.47 541.345 206.856 522.091 206.856C502.838 206.856 487.229 222.47 487.229 241.731C487.229 260.991 502.838 276.605 522.091 276.605Z" fill="#3B82F6"/>
<path d="M524.653 457.317V377.158C524.654 376.035 525.101 374.959 525.894 374.164C526.688 373.37 527.764 372.924 528.887 372.922H538.501C539.623 372.924 540.699 373.37 541.493 374.164C542.287 374.959 542.733 376.035 542.735 377.158V457.317C542.733 458.44 542.287 459.517 541.493 460.311C540.699 461.105 539.623 461.551 538.501 461.553H528.887C527.764 461.551 526.688 461.105 525.894 460.311C525.101 459.517 524.654 458.44 524.653 457.317V457.317Z" fill="#2F2E41"/>
<path d="M504.334 457.317V377.158C504.336 376.035 504.782 374.959 505.576 374.164C506.37 373.37 507.446 372.924 508.568 372.922H518.183C519.305 372.924 520.381 373.37 521.175 374.164C521.969 374.959 522.415 376.035 522.417 377.158V457.317C522.415 458.44 521.969 459.517 521.175 460.311C520.381 461.105 519.305 461.551 518.183 461.553H508.568C507.446 461.551 506.37 461.105 505.576 460.311C504.782 459.517 504.336 458.44 504.334 457.317Z" fill="#2F2E41"/>
<path d="M544.329 386.582H500.646C499.437 386.58 498.278 386.099 497.423 385.244C496.568 384.389 496.087 383.23 496.086 382.02V311.03C496.086 304.025 498.868 297.308 503.819 292.354C508.77 287.401 515.485 284.619 522.487 284.619C529.489 284.619 536.205 287.401 541.156 292.354C546.107 297.308 548.889 304.025 548.889 311.03V382.02C548.887 383.23 548.406 384.389 547.552 385.244C546.697 386.099 545.538 386.58 544.329 386.582V386.582Z" fill="#2F2E41"/>
<path d="M492.651 257.147L492.687 255.844C490.264 255.776 488.127 255.624 486.521 254.451C486.066 254.099 485.692 253.654 485.424 253.144C485.157 252.635 485.002 252.074 484.97 251.5C484.942 251.149 484.995 250.796 485.125 250.469C485.256 250.142 485.459 249.849 485.721 249.614C486.787 248.713 488.502 249.005 489.752 249.578L490.83 250.073L488.763 234.961L487.472 235.138L489.23 247.992C487.532 247.493 485.958 247.708 484.88 248.619C484.466 248.98 484.142 249.432 483.931 249.94C483.721 250.448 483.631 250.997 483.668 251.546C483.706 252.318 483.913 253.072 484.273 253.755C484.633 254.439 485.138 255.035 485.753 255.503C487.816 257.011 490.497 257.086 492.651 257.147Z" fill="#2F2E41"/>
<path d="M503.236 236.247H496.22V237.55H503.236V236.247Z" fill="#2F2E41"/>
<path d="M535.882 381.971C535.472 381.596 535.14 381.142 534.906 380.637C534.672 380.132 534.54 379.586 534.519 379.03L531.2 298.941C531.177 298.385 531.263 297.83 531.455 297.308C531.646 296.786 531.938 296.306 532.315 295.897C532.691 295.488 533.145 295.156 533.649 294.923C534.154 294.689 534.699 294.556 535.255 294.533L544.861 294.135C545.982 294.089 547.076 294.491 547.902 295.251C548.728 296.012 549.219 297.069 549.266 298.191L552.586 378.281C552.631 379.403 552.229 380.497 551.469 381.324C550.709 382.15 549.652 382.641 548.53 382.688L538.925 383.087C538.619 383.1 538.312 383.08 538.01 383.027C537.214 382.887 536.475 382.52 535.882 381.971V381.971Z" fill="#3B82F6"/>
<path d="M548.14 327.766H532.506C531.384 327.765 530.308 327.318 529.514 326.524C528.72 325.73 528.274 324.653 528.272 323.53V301.375C528.272 298.178 529.542 295.112 531.802 292.851C534.062 290.59 537.127 289.32 540.323 289.32C543.519 289.32 546.584 290.59 548.844 292.851C551.104 295.112 552.374 298.178 552.374 301.375V323.53C552.372 324.653 551.926 325.73 551.132 326.524C550.338 327.318 549.262 327.765 548.14 327.766Z" fill="#2F2E41"/>
<path d="M447.748 357.446L441.619 350.036C440.905 349.17 440.563 348.056 440.668 346.938C440.774 345.82 441.318 344.79 442.182 344.073L503.921 292.975C504.786 292.26 505.9 291.917 507.018 292.023C508.136 292.128 509.166 292.673 509.882 293.538L516.011 300.949C516.365 301.377 516.632 301.871 516.795 302.403C516.959 302.935 517.016 303.493 516.964 304.047C516.911 304.601 516.75 305.139 516.49 305.63C516.23 306.122 515.876 306.557 515.447 306.912L453.709 358.009C452.966 358.624 452.035 358.967 451.07 358.981C450.106 358.995 449.165 358.68 448.404 358.087C448.163 357.897 447.943 357.683 447.748 357.446V357.446Z" fill="#3B82F6"/>
<path d="M493.277 324.164L483.374 312.063C482.664 311.193 482.328 310.077 482.439 308.96C482.551 307.843 483.101 306.815 483.968 306.103L501.105 292.068C502.33 291.065 503.74 290.313 505.255 289.855C506.77 289.397 508.36 289.242 509.935 289.399C511.51 289.555 513.039 290.021 514.434 290.769C515.829 291.517 517.063 292.533 518.065 293.758C519.068 294.983 519.819 296.394 520.277 297.909C520.734 299.425 520.889 301.016 520.732 302.592C520.575 304.167 520.109 305.696 519.361 307.091C518.613 308.487 517.597 309.721 516.372 310.724L499.236 324.758C498.366 325.469 497.251 325.805 496.134 325.694C495.017 325.582 493.99 325.032 493.277 324.164Z" fill="#2F2E41"/>
<path d="M451.205 327.107L451.029 327.261L446.819 322.448C446.499 322.083 446.11 321.783 445.674 321.568C445.239 321.353 444.765 321.225 444.28 321.193C443.795 321.161 443.309 321.224 442.849 321.38C442.388 321.536 441.963 321.781 441.598 322.101L431.406 331.025C430.667 331.671 430.216 332.585 430.151 333.564C430.086 334.544 430.412 335.509 431.058 336.248L454.157 362.648C454.477 363.014 454.866 363.313 455.302 363.529C455.738 363.744 456.211 363.872 456.696 363.904C457.181 363.936 457.667 363.873 458.128 363.717C458.588 363.561 459.013 363.316 459.379 362.996L469.571 354.072C470.309 353.425 470.76 352.512 470.825 351.532C470.891 350.553 470.564 349.588 469.918 348.849L454.026 330.686L454.202 330.532L451.205 327.107Z" fill="#3F3D56"/>
<path d="M442.724 323.638L441.455 324.749C441.638 324.841 441.797 324.977 441.915 325.145C442.034 325.312 442.11 325.507 442.136 325.71C442.162 325.914 442.137 326.121 442.065 326.313C441.992 326.505 441.873 326.677 441.718 326.812L436.149 331.688C435.995 331.824 435.809 331.919 435.609 331.965C435.409 332.012 435.201 332.009 435.003 331.956C434.804 331.903 434.622 331.803 434.471 331.663C434.321 331.523 434.207 331.348 434.141 331.154L432.955 332.191C432.695 332.419 432.482 332.697 432.329 333.007C432.175 333.317 432.084 333.655 432.061 334C432.039 334.346 432.084 334.692 432.195 335.02C432.306 335.348 432.48 335.651 432.708 335.912L454.709 361.057C455.169 361.583 455.82 361.905 456.517 361.951C457.215 361.998 457.902 361.765 458.428 361.304L468.196 352.752C468.722 352.291 469.044 351.64 469.09 350.943C469.136 350.245 468.904 349.557 468.443 349.031V349.031L446.443 323.886C445.982 323.36 445.332 323.038 444.634 322.992C443.937 322.945 443.25 323.178 442.724 323.638V323.638Z" fill="white"/>
<path d="M530.831 247.635C532.646 244.601 534.067 241.259 533.393 237.664C532.79 234.454 530.481 231.954 527.161 231.626C525.161 231.429 523.171 231.963 521.218 232.311C519.618 232.592 517.991 232.697 516.367 232.625C513.1 232.476 509.897 231.664 506.954 230.237C503.966 228.839 501.313 226.816 499.172 224.306C497.031 221.797 495.452 218.857 494.541 215.686C492.559 208.47 494.03 200.276 498.736 194.402L497.103 193.971L499.229 200.959C499.271 201.102 499.344 201.234 499.444 201.345C499.544 201.456 499.667 201.543 499.805 201.599C499.943 201.655 500.092 201.679 500.241 201.67C500.39 201.66 500.535 201.617 500.664 201.543C504.518 199.107 508.826 197.48 513.328 196.76C517.829 196.04 522.43 196.242 526.85 197.355C529.348 197.983 531.761 198.911 534.036 200.12C535.146 200.71 536.134 199.023 535.022 198.432C530.75 196.202 526.07 194.863 521.265 194.494C516.46 194.126 511.63 194.737 507.068 196.289C504.47 197.175 501.989 198.373 499.678 199.855L501.113 200.439L498.987 193.451C498.94 193.288 498.851 193.139 498.729 193.02C498.607 192.902 498.457 192.816 498.293 192.773C498.128 192.729 497.955 192.729 497.791 192.773C497.626 192.816 497.476 192.901 497.354 193.02C495.166 195.797 493.562 198.988 492.639 202.402C491.717 205.816 491.494 209.381 491.986 212.883C492.461 216.334 493.66 219.647 495.504 222.602C497.348 225.558 499.796 228.09 502.687 230.033C505.575 231.983 508.821 233.341 512.238 234.028C515.654 234.715 519.172 234.717 522.589 234.035C524.502 233.667 526.671 233.141 528.547 233.942C529.228 234.27 529.827 234.745 530.304 235.331C530.781 235.918 531.122 236.602 531.305 237.335C532.368 240.94 530.559 244.363 528.711 247.36L530.831 247.635Z" fill="#2F2E41"/>
<path d="M513.367 316.201L513.342 316.201C512.978 316.2 512.625 316.075 512.341 315.847C512.057 315.619 511.859 315.301 511.78 314.945L511.907 287.793C511.825 287.425 511.87 287.041 512.036 286.703C512.202 286.364 512.478 286.093 512.819 285.934C517.544 283.714 522.426 283.415 527.745 285.023C528.152 285.144 528.495 285.418 528.703 285.789C528.911 286.159 528.966 286.596 528.856 287.006L514.939 314.989C514.851 315.338 514.648 315.647 514.363 315.867C514.077 316.087 513.727 316.205 513.367 316.201V316.201Z" fill="#CCCCCC"/>
<path d="M604.348 462H442.805C442.632 462 442.467 461.931 442.345 461.809C442.222 461.687 442.154 461.521 442.154 461.348C442.154 461.176 442.222 461.01 442.345 460.888C442.467 460.765 442.632 460.697 442.805 460.697H604.348C604.521 460.697 604.687 460.765 604.809 460.888C604.931 461.01 605 461.176 605 461.348C605 461.521 604.931 461.687 604.809 461.809C604.687 461.931 604.521 462 604.348 462Z" fill="#3F3D56"/>
</g>
<defs>
<clipPath id="clip0_1032_129">
<rect width="605" height="462" fill="white"/>
</clipPath>
</defs>
</svg>
