<svg width="309" height="309" viewBox="0 0 309 309" fill="none" xmlns="http://www.w3.org/2000/svg">
<rect width="309" height="309" rx="154.5" fill="white"/>
<g clip-path="url(#clip0_1079_149)">
<path d="M121.296 67.781L122.423 68.0573C121.914 68.1305 121.405 68.2004 120.896 68.2637H102.086C100.675 68.0839 99.2726 67.862 97.8776 67.5979C89.4743 66.0475 81.4548 62.869 74.2699 58.2411C69.8551 55.3685 65.6464 51.8369 63.361 47.0935C60.2569 40.6526 61.3414 32.4975 65.773 26.8887C67.3864 24.8651 69.373 23.1702 71.625 21.8958C71.9609 21.7027 72.3002 21.5197 72.6463 21.3466C76.3976 19.4605 80.6104 18.6889 84.7862 19.123C91.8892 19.8986 98.4431 24.2391 102.226 30.3039C106.408 37.0011 107.21 45.1962 107.908 53.0618C109.176 48.9809 113.933 46.4877 118.108 47.3898C122.28 48.2885 125.501 52.1864 126.02 56.427C126.529 60.5745 124.646 64.8318 121.509 67.5979C121.439 67.6578 121.369 67.7211 121.296 67.781Z" fill="#F2F2F2"/>
<path d="M106.79 68.2636H105.849C105.756 68.1892 105.683 68.0916 105.639 67.9807C105.586 67.8542 105.536 67.7244 105.479 67.5979C102.682 60.8167 99.2369 54.3213 95.1927 48.2019C88.7665 38.4612 80.8945 29.7568 71.8478 22.3884C71.7705 22.3333 71.7091 22.2587 71.6699 22.1722C71.6308 22.0856 71.6152 21.9902 71.6249 21.8957C71.644 21.7696 71.696 21.6508 71.7756 21.5512C71.8552 21.4516 71.9597 21.3748 72.0785 21.3285C72.1973 21.2823 72.3262 21.2682 72.4522 21.2877C72.5782 21.3072 72.6968 21.3597 72.796 21.4397C78.6576 26.216 84.0344 31.5588 88.8483 37.3905C93.665 43.2151 97.9056 49.4935 101.511 56.1374C103.522 59.8561 105.329 63.682 106.923 67.5979C106.927 67.6079 106.93 67.6145 106.933 67.6245C106.987 67.7312 107.002 67.8531 106.976 67.9695C106.949 68.0859 106.884 68.1898 106.79 68.2636V68.2636Z" fill="white"/>
<path d="M185.641 67.5979H6.32112C4.64512 67.5994 3.0382 68.2662 1.85309 69.452C0.667977 70.6377 0.00151692 72.2454 0 73.9223V93.2284C0.00151692 94.9052 0.667977 96.513 1.85309 97.6987C3.0382 98.8845 4.64512 99.5513 6.32112 99.5528H185.641C187.317 99.5513 188.924 98.8845 190.109 97.6987C191.294 96.513 191.961 94.9052 191.962 93.2284V73.9223C191.961 72.2454 191.294 70.6377 190.109 69.452C188.924 68.2662 187.317 67.5994 185.641 67.5979V67.5979ZM191.297 93.2284C191.295 94.7285 190.698 96.1666 189.638 97.2273C188.578 98.2881 187.141 98.8849 185.641 98.8871H6.32112C4.82178 98.8849 3.38445 98.2881 2.32425 97.2273C1.26406 96.1666 0.667503 94.7285 0.665381 93.2284V73.9223C0.667502 72.4222 1.26406 70.9841 2.32425 69.9234C3.38445 68.8626 4.82177 68.2657 6.32112 68.2636H185.641C187.141 68.2657 188.578 68.8626 189.638 69.9234C190.698 70.9841 191.295 72.4222 191.297 73.9223V93.2284Z" fill="#3F3D56"/>
<path d="M185.641 145.155H6.32112C4.64524 145.153 3.03855 144.486 1.85352 143.301C0.668492 142.115 0.00190373 140.507 0 138.831V119.525C0.00190373 117.848 0.668492 116.24 1.85352 115.055C3.03855 113.869 4.64524 113.202 6.32112 113.2H185.641C187.317 113.202 188.924 113.869 190.109 115.055C191.294 116.24 191.96 117.848 191.962 119.525V138.831C191.96 140.507 191.294 142.115 190.109 143.301C188.924 144.486 187.317 145.153 185.641 145.155V145.155ZM6.32112 113.866C4.82164 113.868 3.38406 114.464 2.32377 115.525C1.26347 116.586 0.667061 118.024 0.665381 119.525V138.831C0.667062 140.331 1.26347 141.769 2.32377 142.83C3.38406 143.891 4.82164 144.488 6.32112 144.489H185.641C187.141 144.488 188.578 143.891 189.639 142.83C190.699 141.769 191.295 140.331 191.297 138.831V119.525C191.295 118.024 190.699 116.586 189.639 115.525C188.578 114.464 187.141 113.868 185.641 113.866H6.32112Z" fill="#3F3D56"/>
<path d="M185.641 190.757H6.32112C4.64524 190.755 3.03855 190.089 1.85352 188.903C0.668492 187.717 0.00190373 186.11 0 184.433V165.127C0.00190373 163.45 0.668492 161.843 1.85352 160.657C3.03855 159.471 4.64524 158.804 6.32112 158.802H185.641C187.317 158.804 188.924 159.471 190.109 160.657C191.294 161.843 191.96 163.45 191.962 165.127V184.433C191.96 186.11 191.294 187.717 190.109 188.903C188.924 190.089 187.317 190.755 185.641 190.757V190.757ZM6.32112 159.468C4.82164 159.47 3.38406 160.067 2.32377 161.127C1.26347 162.188 0.667061 163.627 0.665381 165.127V184.433C0.667062 185.933 1.26347 187.372 2.32377 188.432C3.38406 189.493 4.82164 190.09 6.32112 190.092H185.641C187.141 190.09 188.578 189.493 189.639 188.432C190.699 187.372 191.295 185.933 191.297 184.433V165.127C191.295 163.627 190.699 162.188 189.639 161.127C188.578 160.067 187.141 159.47 185.641 159.468H6.32112Z" fill="#3F3D56"/>
<path d="M35.8743 94.3934H25.2282C23.7728 94.3918 22.3775 93.8126 21.3484 92.783C20.3193 91.7533 19.7404 90.3573 19.7388 88.9012V78.2496C19.7404 76.7934 20.3193 75.3974 21.3484 74.3678C22.3775 73.3381 23.7728 72.759 25.2282 72.7573H35.8743C37.3296 72.759 38.7249 73.3381 39.754 74.3678C40.7831 75.3974 41.362 76.7934 41.3636 78.2496V88.9012C41.362 90.3573 40.7831 91.7533 39.754 92.783C38.7249 93.8126 37.3296 94.3918 35.8743 94.3934V94.3934Z" fill="#3B82F6"/>
<path d="M169.396 92.5626H51.956C51.2501 92.5626 50.5731 92.2821 50.074 91.7827C49.5748 91.2833 49.2944 90.606 49.2944 89.8997C49.2944 89.1935 49.5748 88.5162 50.074 88.0168C50.5731 87.5174 51.2501 87.2368 51.956 87.2368H169.396C170.102 87.2368 170.779 87.5174 171.278 88.0168C171.777 88.5162 172.057 89.1935 172.057 89.8997C172.057 90.606 171.777 91.2833 171.278 91.7827C170.779 92.2821 170.102 92.5626 169.396 92.5626Z" fill="#CCCCCC"/>
<path d="M131.136 81.2454H51.956C51.2501 81.2454 50.5731 80.9648 50.074 80.4654C49.5748 79.966 49.2944 79.2887 49.2944 78.5825C49.2944 77.8762 49.5748 77.1989 50.074 76.6995C50.5731 76.2001 51.2501 75.9196 51.956 75.9196H131.136C131.842 75.9196 132.519 76.2001 133.018 76.6995C133.517 77.1989 133.798 77.8762 133.798 78.5825C133.798 79.2887 133.517 79.966 133.018 80.4654C132.519 80.9648 131.842 81.2454 131.136 81.2454Z" fill="#CCCCCC"/>
<path d="M35.8743 139.996H25.2282C23.7728 139.994 22.3775 139.415 21.3484 138.385C20.3193 137.356 19.7404 135.96 19.7388 134.503V123.852C19.7404 122.396 20.3193 121 21.3484 119.97C22.3775 118.94 23.7728 118.361 25.2282 118.36H35.8743C37.3296 118.361 38.7249 118.94 39.754 119.97C40.7831 121 41.362 122.396 41.3636 123.852V134.503C41.362 135.96 40.7831 137.356 39.754 138.385C38.7249 139.415 37.3296 139.994 35.8743 139.996V139.996Z" fill="#3B82F6"/>
<path d="M169.396 138.165H51.956C51.2501 138.165 50.5731 137.884 50.074 137.385C49.5748 136.886 49.2944 136.208 49.2944 135.502C49.2944 134.796 49.5748 134.118 50.074 133.619C50.5731 133.12 51.2501 132.839 51.956 132.839H169.396C170.102 132.839 170.779 133.12 171.278 133.619C171.777 134.118 172.057 134.796 172.057 135.502C172.057 136.208 171.777 136.886 171.278 137.385C170.779 137.884 170.102 138.165 169.396 138.165Z" fill="#CCCCCC"/>
<path d="M131.136 126.848H51.956C51.2501 126.848 50.5731 126.567 50.074 126.068C49.5748 125.568 49.2944 124.891 49.2944 124.185C49.2944 123.478 49.5748 122.801 50.074 122.302C50.5731 121.802 51.2501 121.522 51.956 121.522H131.136C131.842 121.522 132.519 121.802 133.018 122.302C133.517 122.801 133.798 123.478 133.798 124.185C133.798 124.891 133.517 125.568 133.018 126.068C132.519 126.567 131.842 126.848 131.136 126.848Z" fill="#CCCCCC"/>
<path d="M35.8743 185.598H25.2282C23.7728 185.596 22.3775 185.017 21.3484 183.988C20.3193 182.958 19.7404 181.562 19.7388 180.106V169.454C19.7404 167.998 20.3193 166.602 21.3484 165.572C22.3775 164.543 23.7728 163.964 25.2282 163.962H35.8743C37.3296 163.964 38.7249 164.543 39.754 165.572C40.7831 166.602 41.362 167.998 41.3636 169.454V180.106C41.362 181.562 40.7831 182.958 39.754 183.988C38.7249 185.017 37.3296 185.596 35.8743 185.598Z" fill="#3B82F6"/>
<path d="M169.396 183.767H51.956C51.2501 183.767 50.5731 183.487 50.074 182.987C49.5748 182.488 49.2944 181.811 49.2944 181.104C49.2944 180.398 49.5748 179.721 50.074 179.221C50.5731 178.722 51.2501 178.441 51.956 178.441H169.396C170.102 178.441 170.779 178.722 171.278 179.221C171.777 179.721 172.057 180.398 172.057 181.104C172.057 181.811 171.777 182.488 171.278 182.987C170.779 183.487 170.102 183.767 169.396 183.767Z" fill="#CCCCCC"/>
<path d="M131.136 172.45H51.956C51.2501 172.45 50.5731 172.169 50.074 171.67C49.5748 171.171 49.2944 170.493 49.2944 169.787C49.2944 169.081 49.5748 168.403 50.074 167.904C50.5731 167.405 51.2501 167.124 51.956 167.124H131.136C131.842 167.124 132.519 167.405 133.018 167.904C133.517 168.403 133.798 169.081 133.798 169.787C133.798 170.493 133.517 171.171 133.018 171.67C132.519 172.169 131.842 172.45 131.136 172.45Z" fill="#CCCCCC"/>
<path d="M189.634 77.2509C193.86 77.2509 197.285 73.8233 197.285 69.5951C197.285 65.3669 193.86 61.9392 189.634 61.9392C185.408 61.9392 181.982 65.3669 181.982 69.5951C181.982 73.8233 185.408 77.2509 189.634 77.2509Z" fill="#3F3D56"/>
<path d="M192.628 72.7573C192.584 72.7574 192.541 72.7488 192.5 72.7321C192.46 72.7153 192.423 72.6908 192.393 72.6598L186.404 66.6683C186.342 66.6059 186.307 66.5212 186.307 66.4329C186.307 66.3447 186.342 66.26 186.404 66.1976C186.467 66.1352 186.551 66.1001 186.639 66.1001C186.728 66.1001 186.812 66.1352 186.875 66.1976L192.863 72.1891C192.91 72.2357 192.941 72.295 192.954 72.3595C192.967 72.4241 192.96 72.491 192.935 72.5518C192.91 72.6126 192.867 72.6646 192.813 72.7012C192.758 72.7378 192.694 72.7573 192.628 72.7573L192.628 72.7573Z" fill="white"/>
<path d="M186.639 72.7573C186.574 72.7573 186.509 72.7378 186.455 72.7012C186.4 72.6646 186.357 72.6126 186.332 72.5518C186.307 72.491 186.3 72.4241 186.313 72.3595C186.326 72.295 186.358 72.2357 186.404 72.1891L192.393 66.1976C192.423 66.1667 192.46 66.1422 192.5 66.1254C192.541 66.1087 192.584 66.1001 192.628 66.1001C192.671 66.1001 192.715 66.1087 192.755 66.1254C192.795 66.1422 192.832 66.1667 192.863 66.1976C192.894 66.2285 192.918 66.2652 192.935 66.3056C192.952 66.3459 192.96 66.3892 192.96 66.4329C192.96 66.4766 192.952 66.5199 192.935 66.5603C192.918 66.6007 192.894 66.6374 192.863 66.6683L186.875 72.6598C186.844 72.6908 186.807 72.7153 186.767 72.7321C186.726 72.7488 186.683 72.7574 186.639 72.7573V72.7573Z" fill="white"/>
<path d="M266.655 160.296C276.488 160.296 284.46 152.32 284.46 142.481C284.46 132.643 276.488 124.667 266.655 124.667C256.821 124.667 248.849 132.643 248.849 142.481C248.849 152.32 256.821 160.296 266.655 160.296Z" fill="#3B82F6"/>
<path d="M267.963 252.608V211.661C267.964 211.087 268.192 210.537 268.597 210.132C269.003 209.726 269.552 209.498 270.126 209.497H275.036C275.609 209.498 276.159 209.726 276.564 210.132C276.97 210.537 277.198 211.087 277.198 211.661V252.608C277.198 253.181 276.97 253.731 276.564 254.137C276.159 254.543 275.609 254.771 275.036 254.771H270.126C269.552 254.771 269.003 254.543 268.597 254.137C268.192 253.731 267.964 253.181 267.963 252.608V252.608Z" fill="#2F2E41"/>
<path d="M257.586 252.608V211.661C257.586 211.087 257.814 210.537 258.22 210.132C258.625 209.726 259.175 209.498 259.748 209.497H264.659C265.232 209.498 265.782 209.726 266.187 210.132C266.592 210.537 266.82 211.087 266.821 211.661V252.608C266.82 253.181 266.592 253.731 266.187 254.137C265.782 254.543 265.232 254.771 264.659 254.771H259.748C259.175 254.771 258.625 254.543 258.22 254.137C257.814 253.731 257.586 253.181 257.586 252.608Z" fill="#2F2E41"/>
<path d="M278.013 216.475H255.702C255.084 216.474 254.492 216.228 254.056 215.791C253.619 215.355 253.373 214.762 253.373 214.145V177.881C253.373 174.303 254.793 170.871 257.322 168.341C259.851 165.811 263.281 164.39 266.857 164.39C270.433 164.39 273.863 165.811 276.392 168.341C278.921 170.871 280.341 174.303 280.341 177.881V214.145C280.341 214.762 280.095 215.355 279.659 215.791C279.222 216.228 278.63 216.474 278.013 216.475V216.475Z" fill="#2F2E41"/>
<path d="M251.619 150.356L251.637 149.691C250.399 149.656 249.308 149.579 248.488 148.979C248.255 148.8 248.064 148.572 247.928 148.312C247.791 148.052 247.712 147.765 247.696 147.472C247.681 147.293 247.708 147.112 247.775 146.945C247.841 146.778 247.945 146.629 248.079 146.508C248.623 146.048 249.499 146.197 250.138 146.49L250.688 146.743L249.633 139.023L248.973 139.114L249.871 145.68C249.004 145.425 248.2 145.535 247.65 146C247.438 146.185 247.272 146.416 247.165 146.675C247.058 146.934 247.012 147.215 247.031 147.495C247.05 147.889 247.155 148.275 247.339 148.624C247.523 148.973 247.781 149.278 248.095 149.517C249.149 150.287 250.518 150.326 251.619 150.356Z" fill="#2F2E41"/>
<path d="M257.025 139.68H253.441V140.346H257.025V139.68Z" fill="#2F2E41"/>
<path d="M273.698 214.119C273.489 213.928 273.319 213.696 273.2 213.438C273.08 213.18 273.013 212.901 273.002 212.617L271.307 171.706C271.295 171.422 271.339 171.138 271.437 170.871C271.535 170.605 271.684 170.36 271.876 170.151C272.069 169.942 272.3 169.773 272.558 169.653C272.816 169.534 273.094 169.466 273.378 169.454L278.284 169.251C278.857 169.227 279.416 169.433 279.838 169.821C280.259 170.21 280.51 170.75 280.534 171.323L282.23 212.235C282.253 212.808 282.048 213.367 281.659 213.789C281.271 214.211 280.731 214.461 280.159 214.486L275.252 214.689C275.096 214.696 274.939 214.686 274.785 214.659C274.379 214.587 274.001 214.4 273.698 214.119V214.119Z" fill="#3B82F6"/>
<path d="M279.959 186.43H271.975C271.401 186.43 270.852 186.201 270.446 185.796C270.041 185.39 269.813 184.84 269.812 184.267V172.949C269.812 171.316 270.46 169.75 271.615 168.595C272.769 167.44 274.334 166.791 275.967 166.791C277.599 166.791 279.165 167.44 280.319 168.595C281.473 169.75 282.122 171.316 282.122 172.949V184.267C282.121 184.84 281.893 185.39 281.487 185.796C281.082 186.201 280.532 186.43 279.959 186.43Z" fill="#2F2E41"/>
<path d="M228.684 201.592L225.554 197.806C225.189 197.364 225.015 196.795 225.068 196.224C225.122 195.653 225.401 195.126 225.842 194.76L257.374 168.658C257.817 168.293 258.385 168.118 258.956 168.172C259.527 168.226 260.053 168.504 260.419 168.946L263.549 172.731C263.73 172.95 263.866 173.203 263.95 173.474C264.033 173.746 264.063 174.031 264.036 174.314C264.009 174.597 263.927 174.872 263.794 175.123C263.661 175.374 263.48 175.596 263.261 175.778L231.729 201.879C231.349 202.193 230.874 202.369 230.381 202.376C229.889 202.383 229.408 202.222 229.02 201.919C228.896 201.822 228.784 201.712 228.684 201.592V201.592Z" fill="#3B82F6"/>
<path d="M251.938 184.59L246.88 178.409C246.518 177.965 246.346 177.395 246.403 176.824C246.46 176.253 246.741 175.728 247.184 175.364L255.936 168.195C256.562 167.683 257.282 167.298 258.056 167.064C258.829 166.83 259.642 166.751 260.446 166.831C261.25 166.911 262.031 167.149 262.744 167.531C263.456 167.914 264.086 168.432 264.599 169.058C265.111 169.684 265.494 170.405 265.728 171.179C265.962 171.953 266.041 172.766 265.96 173.571C265.88 174.375 265.642 175.156 265.26 175.869C264.878 176.582 264.36 177.212 263.734 177.725L254.981 184.894C254.537 185.257 253.968 185.429 253.397 185.372C252.827 185.315 252.302 185.034 251.938 184.59Z" fill="#2F2E41"/>
<path d="M230.45 186.093L230.36 186.172L228.21 183.714C228.046 183.527 227.848 183.374 227.625 183.264C227.403 183.154 227.161 183.089 226.913 183.073C226.666 183.056 226.417 183.089 226.182 183.168C225.947 183.248 225.73 183.373 225.543 183.536L220.338 188.095C219.961 188.425 219.73 188.892 219.697 189.392C219.664 189.893 219.83 190.386 220.16 190.763L231.958 204.249C232.122 204.436 232.32 204.589 232.543 204.699C232.765 204.809 233.007 204.874 233.255 204.89C233.502 204.907 233.751 204.874 233.986 204.795C234.221 204.715 234.438 204.59 234.625 204.426L239.83 199.868C240.207 199.538 240.438 199.071 240.471 198.571C240.504 198.07 240.338 197.577 240.008 197.2L231.891 187.922L231.981 187.843L230.45 186.093Z" fill="#3F3D56"/>
<path d="M226.118 184.322L225.47 184.889C225.564 184.936 225.645 185.006 225.706 185.091C225.766 185.177 225.805 185.276 225.818 185.38C225.831 185.484 225.819 185.59 225.782 185.688C225.745 185.786 225.684 185.874 225.605 185.943L222.761 188.434C222.682 188.503 222.587 188.552 222.485 188.575C222.383 188.599 222.276 188.598 222.175 188.571C222.074 188.544 221.98 188.492 221.904 188.421C221.827 188.349 221.769 188.26 221.735 188.161L221.129 188.691C220.996 188.807 220.888 188.949 220.809 189.107C220.731 189.266 220.684 189.438 220.673 189.615C220.661 189.791 220.684 189.968 220.741 190.136C220.797 190.304 220.887 190.458 221.003 190.591L232.24 203.436C232.475 203.705 232.807 203.869 233.163 203.893C233.52 203.917 233.871 203.798 234.139 203.562L239.128 199.193C239.397 198.958 239.561 198.626 239.585 198.269C239.609 197.913 239.49 197.562 239.255 197.293V197.293L228.018 184.448C227.783 184.179 227.451 184.015 227.094 183.991C226.738 183.968 226.387 184.087 226.118 184.322V184.322Z" fill="white"/>
<path d="M271.118 145.498C272.046 143.948 272.771 142.24 272.427 140.404C272.119 138.765 270.94 137.488 269.244 137.32C268.223 137.219 267.206 137.492 266.209 137.669C265.391 137.813 264.56 137.867 263.731 137.83C262.062 137.754 260.427 137.339 258.923 136.61C257.398 135.896 256.042 134.863 254.949 133.581C253.855 132.299 253.049 130.797 252.584 129.177C251.572 125.491 252.323 121.305 254.726 118.305L253.892 118.085L254.978 121.654C254.999 121.728 255.037 121.795 255.088 121.852C255.139 121.908 255.202 121.953 255.272 121.981C255.343 122.01 255.419 122.022 255.495 122.017C255.571 122.012 255.645 121.99 255.711 121.953C257.679 120.708 259.88 119.877 262.179 119.509C264.478 119.142 266.828 119.245 269.085 119.813C270.361 120.134 271.594 120.608 272.755 121.226C273.322 121.527 273.827 120.665 273.259 120.363C271.077 119.224 268.687 118.54 266.233 118.352C263.779 118.164 261.312 118.476 258.982 119.269C257.655 119.722 256.387 120.333 255.207 121.09L255.94 121.389L254.854 117.819C254.83 117.736 254.785 117.66 254.723 117.599C254.661 117.538 254.584 117.495 254.5 117.473C254.416 117.451 254.327 117.45 254.243 117.473C254.159 117.495 254.083 117.538 254.02 117.599C252.903 119.017 252.083 120.648 251.612 122.392C251.141 124.135 251.028 125.957 251.279 127.745C251.521 129.509 252.134 131.2 253.076 132.71C254.017 134.22 255.268 135.513 256.744 136.506C258.219 137.502 259.877 138.196 261.622 138.547C263.367 138.898 265.164 138.899 266.909 138.55C267.886 138.363 268.994 138.094 269.952 138.503C270.3 138.671 270.606 138.913 270.849 139.212C271.093 139.512 271.267 139.862 271.361 140.236C271.904 142.077 270.98 143.826 270.036 145.357L271.118 145.498Z" fill="#2F2E41"/>
<path d="M262.199 180.523L262.187 180.522C262.001 180.522 261.82 180.458 261.675 180.342C261.53 180.225 261.429 180.063 261.388 179.881L261.453 166.011C261.411 165.823 261.435 165.627 261.519 165.454C261.604 165.281 261.745 165.143 261.919 165.061C264.333 163.927 266.826 163.775 269.542 164.596C269.75 164.658 269.926 164.798 270.032 164.987C270.138 165.176 270.166 165.399 270.11 165.609L263.002 179.903C262.957 180.082 262.853 180.24 262.708 180.352C262.562 180.464 262.383 180.524 262.199 180.523V180.523Z" fill="#CCCCCC"/>
<path d="M308.667 255H226.16C226.072 255 225.987 254.965 225.925 254.903C225.862 254.84 225.827 254.755 225.827 254.667C225.827 254.579 225.862 254.494 225.925 254.432C225.987 254.369 226.072 254.334 226.16 254.334H308.667C308.756 254.334 308.84 254.369 308.903 254.432C308.965 254.494 309 254.579 309 254.667C309 254.755 308.965 254.84 308.903 254.903C308.84 254.965 308.756 255 308.667 255Z" fill="#3F3D56"/>
</g>
<defs>
<clipPath id="clip0_1079_149">
<rect width="309" height="236" fill="white" transform="translate(0 19)"/>
</clipPath>
</defs>
</svg>
